<svg xmlns="http://www.w3.org/2000/svg" viewBox="0 0 100 100"><path d="M50 23.069C35.291-3.711 3.062 14.259 9.289 44.604 15.38 74.298 50 90 50 90s34.617-15.702 40.711-45.396C96.939 14.26 64.705-3.71 50 23.07zm1.995 12.37c.22-2.165 1.187-4.144 2.59-5.291.956-.783 2.04-1.137 3.125-1.021 2.769.29 4.71 3.594 4.328 7.364-.22 2.165-1.187 4.144-2.59 5.292-.838.686-1.773 1.042-2.724 1.042-.134 0-.267-.007-.4-.022-2.77-.29-4.711-3.594-4.33-7.364zm-9.704-6.312c1.09-.116 2.17.239 3.124 1.02 1.403 1.148 2.371 3.127 2.59 5.292.383 3.77-1.559 7.074-4.328 7.364a3.775 3.775 0 0 1-.4.022c-.952 0-1.886-.356-2.724-1.042-1.403-1.148-2.371-3.126-2.591-5.292-.382-3.77 1.56-7.074 4.329-7.364zM32.62 50.05c-.451 0-.918-.075-1.39-.227-1.637-.524-3.172-1.936-4.107-3.777-1.631-3.212-1.038-6.836 1.322-8.078.934-.492 2.022-.562 3.146-.202 1.635.524 3.171 1.937 4.106 3.777 1.631 3.212 1.038 6.836-1.322 8.08a3.731 3.731 0 0 1-1.755.427zm32.558 14.6c-.59 2.687-2.495 4.807-5.23 5.815a6.937 6.937 0 0 1-2.404.429c-1.996 0-3.973-.852-5.429-2.428A2.852 2.852 0 0 0 50 67.539c-.812 0-1.563.33-2.116.928-2.047 2.215-5.122 2.998-7.833 1.999-2.735-1.008-4.64-3.128-5.23-5.815a7.807 7.807 0 0 1 2.088-7.204l5.935-6.714C44.661 48.679 47.27 47.5 50 47.5s5.34 1.178 7.156 3.232l5.956 6.736c1.86 1.872 2.64 4.565 2.067 7.182zm7.697-18.604c-.935 1.841-2.47 3.253-4.106 3.777-.473.152-.94.227-1.39.227a3.731 3.731 0 0 1-1.756-.428c-2.36-1.243-2.953-4.867-1.322-8.079.935-1.84 2.47-3.253 4.106-3.777 1.124-.36 2.212-.29 3.146.202 2.36 1.242 2.953 4.866 1.322 8.078z"/></svg>