<svg height="512" viewBox="0 0 64 64" width="512" xmlns="http://www.w3.org/2000/svg"><g id="flat"><path d="m15 3s-4 8-1 16l8-5.824z" fill="#e8e7d6"/><path d="m49 3s4 8 1 16l-8-4.878z" fill="#e8e7d6"/><path d="m52.422 33.8a54.422 54.422 0 0 0 -2.422-9.8l4 1a22.586 22.586 0 0 0 -9.159-12.85l4.159-9.15-8.555 6.844a25.171 25.171 0 0 0 -8.445-1.844 25.171 25.171 0 0 0 -8.445 1.844l-8.555-6.844 4.159 9.15a22.586 22.586 0 0 0 -9.159 12.85l4-1a54.422 54.422 0 0 0 -2.422 9.8l11.422 5.007h19z" fill="#d3843d"/><path d="m42 54c6-6 7-16 7-16l4 3a47.659 47.659 0 0 0 -.578-7.2c-2.031-1.825-4.481-2.428-8.422.2-6 4-5-2-12-2s-6 6-12 2c-3.941-2.628-6.391-2.025-8.422-.2a47.659 47.659 0 0 0 -.578 7.2l4-3s1 10 7 16l3-4 7 11 7-11z" fill="#e8e7d6"/><path d="m32 44a4 4 0 0 0 4-4v-1c-2.761 0-4-1.343-4-3 0 1.657-1.239 3-4 3v1a4 4 0 0 0 4 4z" fill="#f98c96"/><circle cx="24" cy="30" fill="#143441" r="2"/><circle cx="40" cy="30" fill="#143441" r="2"/><path d="m39 36c0 1.74-1.879 2-3 2s-3-.26-3-2v-2h-2v2c0 1.74-1.879 2-3 2s-3-.26-3-2h-2c0 1.846 1.31 4 5 4a5.2 5.2 0 0 0 4-1.449 5.2 5.2 0 0 0 4 1.449c3.69 0 5-2.154 5-4z" fill="#394d5c"/><path d="m35 33.333a3.021 3.021 0 0 1 -6 0c0-1.104 1.343-1.333 3-1.333s3 .229 3 1.333z" fill="#143441"/></g></svg>